<svg xmlns="http://www.w3.org/2000/svg" xmlns:xlink="http://www.w3.org/1999/xlink" viewBox="0 0 512 512" width="512" height="512" style="width: 100%; height: 100%; transform: translate3d(0,0,0); content-visibility: visible;" preserveAspectRatio="xMidYMid meet"><defs><clipPath id="__lottie_element_2"><rect width="512" height="512" x="0" y="0"></rect></clipPath><clipPath id="__lottie_element_4"><path d="M0,0 L512,0 L512,512 L0,512z"></path></clipPath><linearGradient id="__lottie_element_17" spreadMethod="pad" gradientUnits="userSpaceOnUse" x1="-1104.39404296875" y1="610.0479736328125" x2="-1100.844970703125" y2="905.801025390625"><stop offset="0%" stop-color="rgb(244,251,255)"></stop><stop offset="50%" stop-color="rgb(216,241,255)"></stop><stop offset="99%" stop-color="rgb(189,231,255)"></stop></linearGradient><linearGradient id="__lottie_element_20" spreadMethod="pad" gradientUnits="userSpaceOnUse" x1="-1067.218994140625" y1="807.9219970703125" x2="-1067.218994140625" y2="692.9400024414062"><stop offset="1%" stop-color="rgb(0,0,0)"></stop><stop offset="50%" stop-color="rgb(57,59,60)"></stop><stop offset="99%" stop-color="rgb(115,118,120)"></stop></linearGradient><linearGradient id="__lottie_element_21" spreadMethod="pad" gradientUnits="userSpaceOnUse" x1="-1254.218994140625" y1="804.9219970703125" x2="-1254.218994140625" y2="689.9400024414062"><stop offset="1%" stop-color="rgb(0,0,0)"></stop><stop offset="50%" stop-color="rgb(57,59,60)"></stop><stop offset="99%" stop-color="rgb(115,118,120)"></stop></linearGradient><linearGradient id="__lottie_element_22" spreadMethod="pad" gradientUnits="userSpaceOnUse" x1="-1269.218994140625" y1="694.9219970703125" x2="-1269.218994140625" y2="796.1270141601562"><stop offset="1%" stop-color="rgb(255,255,255)" stop-opacity="1"></stop><stop offset="29%" stop-color="rgb(255,255,255)" stop-opacity="0.5"></stop><stop offset="58%" stop-color="rgb(255,255,255)" stop-opacity="0"></stop></linearGradient><linearGradient id="__lottie_element_23" spreadMethod="pad" gradientUnits="userSpaceOnUse" x1="-1232.218994140625" y1="692.9219970703125" x2="-1232.218994140625" y2="803.489013671875"><stop offset="1%" stop-color="rgb(255,255,255)" stop-opacity="1"></stop><stop offset="29%" stop-color="rgb(255,255,255)" stop-opacity="0.5"></stop><stop offset="58%" stop-color="rgb(255,255,255)" stop-opacity="0"></stop></linearGradient><linearGradient id="__lottie_element_24" spreadMethod="pad" gradientUnits="userSpaceOnUse" x1="-1089.218994140625" y1="694.9219970703125" x2="-1089.218994140625" y2="796.1270141601562"><stop offset="1%" stop-color="rgb(255,255,255)" stop-opacity="1"></stop><stop offset="29%" stop-color="rgb(255,255,255)" stop-opacity="0.5"></stop><stop offset="58%" stop-color="rgb(255,255,255)" stop-opacity="0"></stop></linearGradient><linearGradient id="__lottie_element_25" spreadMethod="pad" gradientUnits="userSpaceOnUse" x1="-1052.218994140625" y1="692.9219970703125" x2="-1052.218994140625" y2="803.489013671875"><stop offset="1%" stop-color="rgb(255,255,255)" stop-opacity="1"></stop><stop offset="29%" stop-color="rgb(255,255,255)" stop-opacity="0.5"></stop><stop offset="58%" stop-color="rgb(255,255,255)" stop-opacity="0"></stop></linearGradient><linearGradient id="__lottie_element_52" spreadMethod="pad" gradientUnits="userSpaceOnUse" x1="-1140.218994140625" y1="997.9219970703125" x2="-1058.8170166015625" y2="997.9219970703125"><stop offset="0%" stop-color="rgb(255,249,128)"></stop><stop offset="46%" stop-color="rgb(255,252,192)"></stop><stop offset="62%" stop-color="rgb(255,255,255)"></stop><stop offset="67%" stop-color="rgb(253,230,157)"></stop><stop offset="100%" stop-color="rgb(251,205,59)"></stop></linearGradient><linearGradient id="__lottie_element_53" spreadMethod="pad" gradientUnits="userSpaceOnUse" x1="-1109.218994140625" y1="919.9219970703125" x2="-1113.626953125" y2="1056.5780029296875"><stop offset="0%" stop-color="rgb(255,249,128)"></stop><stop offset="46%" stop-color="rgb(255,252,192)"></stop><stop offset="62%" stop-color="rgb(255,255,255)"></stop><stop offset="67%" stop-color="rgb(253,230,157)"></stop><stop offset="100%" stop-color="rgb(251,205,59)"></stop></linearGradient><clipPath id="__lottie_element_79"><path d="M0,0 L512,0 L512,512 L0,512z"></path></clipPath><linearGradient id="__lottie_element_92" spreadMethod="pad" gradientUnits="userSpaceOnUse"><stop></stop><stop></stop><stop></stop></linearGradient><linearGradient id="__lottie_element_95" spreadMethod="pad" gradientUnits="userSpaceOnUse"><stop></stop><stop></stop><stop></stop></linearGradient><linearGradient id="__lottie_element_96" spreadMethod="pad" gradientUnits="userSpaceOnUse"><stop></stop><stop></stop><stop></stop></linearGradient><linearGradient id="__lottie_element_97" spreadMethod="pad" gradientUnits="userSpaceOnUse"><stop></stop><stop></stop><stop></stop></linearGradient><linearGradient id="__lottie_element_98" spreadMethod="pad" gradientUnits="userSpaceOnUse"><stop></stop><stop></stop><stop></stop></linearGradient><linearGradient id="__lottie_element_99" spreadMethod="pad" gradientUnits="userSpaceOnUse"><stop></stop><stop></stop><stop></stop></linearGradient><linearGradient id="__lottie_element_100" spreadMethod="pad" gradientUnits="userSpaceOnUse"><stop></stop><stop></stop><stop></stop></linearGradient><linearGradient id="__lottie_element_127" spreadMethod="pad" gradientUnits="userSpaceOnUse"><stop></stop><stop></stop><stop></stop><stop></stop><stop></stop></linearGradient><linearGradient id="__lottie_element_128" spreadMethod="pad" gradientUnits="userSpaceOnUse"><stop></stop><stop></stop><stop></stop><stop></stop><stop></stop></linearGradient></defs><g clip-path="url(#__lottie_element_2)"><g clip-path="url(#__lottie_element_79)" style="display: none;"><g style="display: none;"><g><path></path><path stroke-linecap="round" stroke-linejoin="round" fill-opacity="0"></path></g></g><g style="display: none;"><g><path></path><path stroke-linecap="round" stroke-linejoin="round" fill-opacity="0"></path></g></g><g style="display: none;"><g><path></path><path stroke-linecap="round" stroke-linejoin="round" fill-opacity="0"></path></g></g><g style="display: none;"><g><path></path><path stroke-linecap="round" stroke-linejoin="round" fill-opacity="0"></path></g></g><g style="display: none;"><g><path></path><path stroke-linecap="round" stroke-linejoin="round" fill-opacity="0"></path></g></g><g style="display: none;"><g><path stroke-linecap="round" stroke-linejoin="round" fill-opacity="0"></path></g></g><g style="display: none;"><g><path></path><path stroke-linecap="round" stroke-linejoin="round" fill-opacity="0"></path></g><g><path></path><path stroke-linecap="round" stroke-linejoin="round" fill-opacity="0"></path></g></g><g style="display: none;"><g><path></path><path stroke-linecap="round" stroke-linejoin="round" fill-opacity="0"></path></g><g><path fill="url(#__lottie_element_92)"></path></g></g><g style="display: none;"><g><path></path></g><g><path></path></g></g><g style="display: none;"><g><path fill="url(#__lottie_element_127)"></path><path stroke-linecap="round" stroke-linejoin="round" fill-opacity="0"></path></g><g><path fill="url(#__lottie_element_128)"></path><path stroke-linecap="round" stroke-linejoin="round" fill-opacity="0"></path></g></g><g style="display: none;"><g><path stroke-linecap="round" stroke-linejoin="round" fill-opacity="0"></path></g></g><g style="display: none;"><g><path stroke-linecap="round" stroke-linejoin="round" fill-opacity="0"></path></g></g><g style="display: none;"><g><path></path><path stroke-linecap="round" stroke-linejoin="round" fill-opacity="0"></path></g></g><g style="display: none;"><g><path></path><path stroke-linecap="round" stroke-linejoin="round" fill-opacity="0"></path></g><g><g><path></path></g><g><path stroke-linecap="round" stroke-linejoin="round" fill-opacity="0"></path></g><g><path stroke-linecap="round" stroke-linejoin="round" fill-opacity="0"></path></g></g></g><g style="display: none;"><g><g><path></path><path stroke-linecap="round" stroke-linejoin="round" fill-opacity="0"></path></g><g><path></path><path stroke-linecap="round" stroke-linejoin="round" fill-opacity="0"></path></g></g></g><g style="display: none;"><g><path fill="url(#__lottie_element_95)"></path></g><g><path fill="url(#__lottie_element_96)"></path></g><g><path></path></g><g><path stroke-linecap="round" stroke-linejoin="round" fill-opacity="0"></path></g><g><path stroke-linecap="round" stroke-linejoin="round" fill-opacity="0"></path></g><g><g><path fill="url(#__lottie_element_97)"></path></g><g><path fill="url(#__lottie_element_98)"></path></g></g><g><g><path fill="url(#__lottie_element_99)"></path></g><g><path fill="url(#__lottie_element_100)"></path></g></g><g><path stroke-linecap="round" stroke-linejoin="round" fill-opacity="0"></path></g><g><path stroke-linecap="round" stroke-linejoin="round" fill-opacity="0"></path></g></g><g style="display: none;"><g><path stroke-linecap="round" stroke-linejoin="round" fill-opacity="0"></path></g></g><g style="display: none;"><g><path></path></g></g><g style="display: none;"><g><path></path></g></g><g style="display: none;"></g></g><g clip-path="url(#__lottie_element_4)" style="display: block;" transform="matrix(1,0,0,1,0,0)" opacity="1"><g style="display: none;"><g><path></path><path stroke-linecap="round" stroke-linejoin="round" fill-opacity="0"></path></g></g><g style="display: none;"><g><path></path><path stroke-linecap="round" stroke-linejoin="round" fill-opacity="0"></path></g></g><g style="display: block;" transform="matrix(0.6923076510429382,0,0,0.6923076510429382,1337.439697265625,-230.16000366210938)" opacity="1"><g opacity="1" transform="matrix(1,0,0,1,0,0)"><path fill="rgb(255,249,128)" fill-opacity="1" d=" M-1281.7869873046875,883.1069946289062 C-1282.116943359375,884.0960083007812 -1292.6280517578125,943.1840209960938 -1292.6280517578125,943.1840209960938 C-1292.6280517578125,943.1840209960938 -1323.81005859375,950.0079956054688 -1323.81005859375,950.0079956054688 C-1323.81005859375,950.0079956054688 -1288.2060546875,967.5029907226562 -1288.2060546875,967.5029907226562 C-1288.2060546875,967.5029907226562 -1278.9129638671875,1017.2014770507812 -1278.9129638671875,1017.2014770507812 C-1278.9129638671875,1017.2014770507812 -1267.2039794921875,965.2919921875 -1267.2039794921875,965.2919921875 C-1267.2039794921875,965.2919921875 -1237.675048828125,951.8380126953125 -1237.675048828125,951.8380126953125 C-1237.675048828125,951.8380126953125 -1268.3089599609375,940.9739990234375 -1268.3089599609375,940.9739990234375 C-1268.3089599609375,940.9739990234375 -1281.7869873046875,883.1069946289062 -1281.7869873046875,883.1069946289062z"></path><path stroke-linecap="round" stroke-linejoin="round" fill-opacity="0" stroke="rgb(255,187,0)" stroke-opacity="1" stroke-width="13" d=" M-1281.7869873046875,883.1069946289062 C-1282.116943359375,884.0960083007812 -1292.6280517578125,943.1840209960938 -1292.6280517578125,943.1840209960938 C-1292.6280517578125,943.1840209960938 -1323.81005859375,950.0079956054688 -1323.81005859375,950.0079956054688 C-1323.81005859375,950.0079956054688 -1288.2060546875,967.5029907226562 -1288.2060546875,967.5029907226562 C-1288.2060546875,967.5029907226562 -1278.9129638671875,1017.2014770507812 -1278.9129638671875,1017.2014770507812 C-1278.9129638671875,1017.2014770507812 -1267.2039794921875,965.2919921875 -1267.2039794921875,965.2919921875 C-1267.2039794921875,965.2919921875 -1237.675048828125,951.8380126953125 -1237.675048828125,951.8380126953125 C-1237.675048828125,951.8380126953125 -1268.3089599609375,940.9739990234375 -1268.3089599609375,940.9739990234375 C-1268.3089599609375,940.9739990234375 -1281.7869873046875,883.1069946289062 -1281.7869873046875,883.1069946289062z"></path></g></g><g style="display: none;"><g><path></path><path stroke-linecap="round" stroke-linejoin="round" fill-opacity="0"></path></g></g><g style="display: block;" transform="matrix(0,0,0,0,433.4800109863281,402.6709899902344)" opacity="1"><g opacity="1" transform="matrix(1,0,0,1,0,0)"><path fill="rgb(255,249,128)" fill-opacity="1" d=" M-919.6333618164062,903.6439819335938 C-920.0953369140625,905.030029296875 -932.396484375,952.1693725585938 -932.396484375,952.1693725585938 C-932.396484375,952.1693725585938 -977.990234375,964.4207153320312 -977.990234375,964.4207153320312 C-977.990234375,964.4207153320312 -928.7771606445312,982.3812866210938 -928.7771606445312,982.3812866210938 C-928.7771606445312,982.3812866210938 -913.178466796875,1020.9087524414062 -913.178466796875,1020.9087524414062 C-913.178466796875,1020.9087524414062 -898.059814453125,979.2833251953125 -898.059814453125,979.2833251953125 C-898.059814453125,979.2833251953125 -857.0208129882812,964.238525390625 -857.0208129882812,964.238525390625 C-857.0208129882812,964.238525390625 -900.8971557617188,951.0048828125 -900.8971557617188,951.0048828125 C-900.8971557617188,951.0048828125 -919.6333618164062,903.6439819335938 -919.6333618164062,903.6439819335938z"></path><path stroke-linecap="round" stroke-linejoin="round" fill-opacity="0" stroke="rgb(255,187,0)" stroke-opacity="1" stroke-width="13" d=" M-919.6333618164062,903.6439819335938 C-920.0953369140625,905.030029296875 -932.396484375,952.1693725585938 -932.396484375,952.1693725585938 C-932.396484375,952.1693725585938 -977.990234375,964.4207153320312 -977.990234375,964.4207153320312 C-977.990234375,964.4207153320312 -928.7771606445312,982.3812866210938 -928.7771606445312,982.3812866210938 C-928.7771606445312,982.3812866210938 -913.178466796875,1020.9087524414062 -913.178466796875,1020.9087524414062 C-913.178466796875,1020.9087524414062 -898.059814453125,979.2833251953125 -898.059814453125,979.2833251953125 C-898.059814453125,979.2833251953125 -857.0208129882812,964.238525390625 -857.0208129882812,964.238525390625 C-857.0208129882812,964.238525390625 -900.8971557617188,951.0048828125 -900.8971557617188,951.0048828125 C-900.8971557617188,951.0048828125 -919.6333618164062,903.6439819335938 -919.6333618164062,903.6439819335938z"></path></g></g><g style="display: block;" transform="matrix(0.9506783485412598,0,0,1.0494089126586914,1300.5765380859375,-554.7130126953125)" opacity="1"><g opacity="1" transform="matrix(1,0,0,1,0,0)"><path stroke-linecap="round" stroke-linejoin="round" fill-opacity="0" stroke="rgb(235,141,0)" stroke-opacity="1" stroke-width="11" d=" M-1269.0799560546875,785.5139770507812 C-1263.43603515625,916.448974609375 -1089.906982421875,939.5 -1089.906982421875,939.5"></path></g></g><g style="display: block;" transform="matrix(0.9506783485412598,0,0,1.0494089126586914,1154.292724609375,-481.1087646484375)" opacity="1"><g opacity="1" transform="matrix(1,0,0,1,0,0)"><path fill="rgb(255,255,255)" fill-opacity="1" d=" M-1010.9929809570312,713.802978515625 C-1010.9929809570312,713.802978515625 -1037.2850341796875,662.0170288085938 -1037.2850341796875,662.0170288085938 C-1037.2850341796875,662.0170288085938 -963.302978515625,667.7069702148438 -952.0360107421875,656.4400024414062 C-934.5079956054688,638.9119873046875 -988.6849975585938,638.114990234375 -969.5640258789062,616.60400390625 C-952.6840209960938,597.614013671875 -921.7620239257812,619.7899780273438 -904.2340087890625,609.4329833984375 C-886.7059936523438,599.0759887695312 -907.4199829101562,582.344970703125 -907.4199829101562,582.344970703125 C-907.4199829101562,582.344970703125 -834.9190063476562,612.6199951171875 -905.8270263671875,643.6920166015625"></path><path stroke-linecap="round" stroke-linejoin="round" fill-opacity="0" stroke="rgb(91,173,235)" stroke-opacity="1" stroke-width="13" d=" M-1010.9929809570312,713.802978515625 C-1010.9929809570312,713.802978515625 -1037.2850341796875,662.0170288085938 -1037.2850341796875,662.0170288085938 C-1037.2850341796875,662.0170288085938 -963.302978515625,667.7069702148438 -952.0360107421875,656.4400024414062 C-934.5079956054688,638.9119873046875 -988.6849975585938,638.114990234375 -969.5640258789062,616.60400390625 C-952.6840209960938,597.614013671875 -921.7620239257812,619.7899780273438 -904.2340087890625,609.4329833984375 C-886.7059936523438,599.0759887695312 -907.4199829101562,582.344970703125 -907.4199829101562,582.344970703125 C-907.4199829101562,582.344970703125 -834.9190063476562,612.6199951171875 -905.8270263671875,643.6920166015625"></path></g><g opacity="1" transform="matrix(1,0,0,1,0,0)"><path fill="rgb(255,255,255)" fill-opacity="1" d=" M-983.1079711914062,701.0549926757812 C-951.3880004882812,711.822998046875 -909.9219970703125,691.719970703125 -896.7239990234375,669.8419799804688 C-888.0009765625,655.3820190429688 -891.6259765625,640.14697265625 -918.573974609375,632.5380249023438"></path><path stroke-linecap="round" stroke-linejoin="round" fill-opacity="0" stroke="rgb(91,173,235)" stroke-opacity="1" stroke-width="13" d=" M-983.1079711914062,701.0549926757812 C-951.3880004882812,711.822998046875 -909.9219970703125,691.719970703125 -896.7239990234375,669.8419799804688 C-888.0009765625,655.3820190429688 -891.6259765625,640.14697265625 -918.573974609375,632.5380249023438"></path></g></g><g style="display: block;" transform="matrix(0.9506783485412598,0,0,1.0494089126586914,1300.5765380859375,-554.7130126953125)" opacity="1"><g opacity="1" transform="matrix(1,0,0,1,0,0)"><path fill="rgb(255,255,255)" fill-opacity="1" d=" M-1288.5367431640625,799.7184448242188 C-1279.5517578125,899.5614013671875 -1200.5281982421875,982.0699462890625 -1092.1712646484375,980.3218994140625 C-958.688232421875,978.1689453125 -899.4696044921875,868.3607788085938 -908.45458984375,768.5177612304688 C-917.4395751953125,668.6747436523438 -1007.3939819335938,579.9390258789062 -1115.364013671875,589.198974609375 C-1223.333984375,598.458984375 -1297.521728515625,699.8754272460938 -1288.5367431640625,799.7184448242188z"></path><path stroke-linecap="round" stroke-linejoin="round" fill-opacity="0" stroke="rgb(91,173,235)" stroke-opacity="1" stroke-width="13" d=" M-1288.5367431640625,799.7184448242188 C-1279.5517578125,899.5614013671875 -1200.5281982421875,982.0699462890625 -1092.1712646484375,980.3218994140625 C-958.688232421875,978.1689453125 -899.4696044921875,868.3607788085938 -908.45458984375,768.5177612304688 C-917.4395751953125,668.6747436523438 -1007.3939819335938,579.9390258789062 -1115.364013671875,589.198974609375 C-1223.333984375,598.458984375 -1297.521728515625,699.8754272460938 -1288.5367431640625,799.7184448242188z"></path></g><g opacity="1" transform="matrix(1,0,0,1,0,0)"><path fill="url(#__lottie_element_17)" fill-opacity="1" d=" M-1269.99072265625,796.0723876953125 C-1261.86669921875,886.3504028320312 -1196.0782470703125,963.3409423828125 -1098.102294921875,961.7609252929688 C-977.4072265625,959.8139038085938 -919.2435913085938,858.3617553710938 -927.3675537109375,768.083740234375 C-935.4915771484375,677.8057250976562 -1016.3629760742188,596.1060180664062 -1113.989013671875,604.47802734375 C-1211.614990234375,612.8499755859375 -1278.11474609375,705.79443359375 -1269.99072265625,796.0723876953125z"></path></g></g><g style="display: block;" transform="matrix(0.9860634803771973,0,0,1.029505968093872,1397.8388671875,-630.8709716796875)" opacity="1"><g opacity="1" transform="matrix(1,0,0,1,0,0)"><path fill="rgb(255,151,151)" fill-opacity="1" d=" M-1075.2530517578125,816.1920166015625 C-1074.8389892578125,828.7559814453125 -1058.740966796875,838.2249755859375 -1039.2969970703125,837.343994140625 C-1019.85302734375,836.4630126953125 -1004.427001953125,825.5640258789062 -1004.8410034179688,813 C-1005.2550048828125,800.4359741210938 -1021.35302734375,790.9660034179688 -1040.7969970703125,791.8469848632812 C-1060.240966796875,792.72802734375 -1075.66796875,803.6279907226562 -1075.2530517578125,816.1920166015625z"></path></g><g opacity="1" transform="matrix(1,0,0,1,0,0)"><path fill="rgb(255,151,151)" fill-opacity="1" d=" M-1282.6639404296875,811.6729736328125 C-1283.635009765625,824.22900390625 -1270.467041015625,834.9749755859375 -1253.2509765625,835.6749877929688 C-1236.0350341796875,836.375 -1221.2919921875,826.7650146484375 -1220.321044921875,814.208984375 C-1219.3499755859375,801.6530151367188 -1232.5179443359375,790.906982421875 -1249.7340087890625,790.2069702148438 C-1266.949951171875,789.5070190429688 -1281.6929931640625,799.1170043945312 -1282.6639404296875,811.6729736328125z"></path></g></g><g style="display: block;" transform="matrix(0.45603469014167786,0.2208225429058075,-0.200047105550766,0.503395140171051,949.0321044921875,201.92373657226562)" opacity="1"><g opacity="1" transform="matrix(1,0,0,1,0,0)"><path fill="url(#__lottie_element_52)" fill-opacity="1" d=" M-1065.8499755859375,940.1939697265625 C-1065.8499755859375,940.1939697265625 -1066.08203125,966.5819702148438 -1066.08203125,966.5819702148438 C-1066.08203125,966.5819702148438 -1105.14697265625,956.7169799804688 -1108.43603515625,975.760986328125 C-1111.7249755859375,994.8049926757812 -1052.5439453125,982.9910278320312 -1056.803955078125,1029.9580078125 C-1060.27197265625,1068.18994140625 -1136.406005859375,1053.5159912109375 -1136.406005859375,1053.5159912109375 C-1136.406005859375,1053.5159912109375 -1135.8050537109375,1029.97802734375 -1135.8050537109375,1029.97802734375 C-1135.8050537109375,1029.97802734375 -1094.8349609375,1041.8409423828125 -1093.6309814453125,1023.2000122070312 C-1092.4720458984375,1005.2490234375 -1141.91796875,1006.1099853515625 -1139.886962890625,970.3289794921875 C-1137.571044921875,929.5330200195312 -1065.8499755859375,940.1939697265625 -1065.8499755859375,940.1939697265625z"></path><path stroke-linecap="round" stroke-linejoin="round" fill-opacity="0" stroke="rgb(235,110,0)" stroke-opacity="1" stroke-width="13" d=" M-1065.8499755859375,940.1939697265625 C-1065.8499755859375,940.1939697265625 -1066.08203125,966.5819702148438 -1066.08203125,966.5819702148438 C-1066.08203125,966.5819702148438 -1105.14697265625,956.7169799804688 -1108.43603515625,975.760986328125 C-1111.7249755859375,994.8049926757812 -1052.5439453125,982.9910278320312 -1056.803955078125,1029.9580078125 C-1060.27197265625,1068.18994140625 -1136.406005859375,1053.5159912109375 -1136.406005859375,1053.5159912109375 C-1136.406005859375,1053.5159912109375 -1135.8050537109375,1029.97802734375 -1135.8050537109375,1029.97802734375 C-1135.8050537109375,1029.97802734375 -1094.8349609375,1041.8409423828125 -1093.6309814453125,1023.2000122070312 C-1092.4720458984375,1005.2490234375 -1141.91796875,1006.1099853515625 -1139.886962890625,970.3289794921875 C-1137.571044921875,929.5330200195312 -1065.8499755859375,940.1939697265625 -1065.8499755859375,940.1939697265625z"></path></g><g opacity="1" transform="matrix(1,0,0,1,0,0)"><path fill="url(#__lottie_element_53)" fill-opacity="1" d=" M-1078.0360107421875,938.7650146484375 C-1078.0360107421875,938.7650146484375 -1077.9189453125,960.1649780273438 -1077.9189453125,960.1649780273438 C-1077.9189453125,960.1649780273438 -1112.177001953125,954.18798828125 -1115.4659423828125,973.2319946289062 C-1118.7550048828125,992.2760009765625 -1064.634033203125,982.9359741210938 -1068.89404296875,1029.9029541015625 C-1072.362060546875,1068.135009765625 -1146.5269775390625,1051.22802734375 -1146.5269775390625,1051.22802734375 C-1146.5269775390625,1051.22802734375 -1145.925048828125,1027.6910400390625 -1145.925048828125,1027.6910400390625 C-1145.925048828125,1027.6910400390625 -1113.35302734375,1036.8360595703125 -1112.1490478515625,1018.1950073242188 C-1110.989990234375,1000.2440185546875 -1154.8189697265625,1005.2249755859375 -1152.7879638671875,969.4439697265625 C-1150.4720458984375,928.6480102539062 -1078.0360107421875,938.7650146484375 -1078.0360107421875,938.7650146484375z"></path><path stroke-linecap="round" stroke-linejoin="round" fill-opacity="0" stroke="rgb(235,110,0)" stroke-opacity="1" stroke-width="13" d=" M-1078.0360107421875,938.7650146484375 C-1078.0360107421875,938.7650146484375 -1077.9189453125,960.1649780273438 -1077.9189453125,960.1649780273438 C-1077.9189453125,960.1649780273438 -1112.177001953125,954.18798828125 -1115.4659423828125,973.2319946289062 C-1118.7550048828125,992.2760009765625 -1064.634033203125,982.9359741210938 -1068.89404296875,1029.9029541015625 C-1072.362060546875,1068.135009765625 -1146.5269775390625,1051.22802734375 -1146.5269775390625,1051.22802734375 C-1146.5269775390625,1051.22802734375 -1145.925048828125,1027.6910400390625 -1145.925048828125,1027.6910400390625 C-1145.925048828125,1027.6910400390625 -1113.35302734375,1036.8360595703125 -1112.1490478515625,1018.1950073242188 C-1110.989990234375,1000.2440185546875 -1154.8189697265625,1005.2249755859375 -1152.7879638671875,969.4439697265625 C-1150.4720458984375,928.6480102539062 -1078.0360107421875,938.7650146484375 -1078.0360107421875,938.7650146484375z"></path></g></g><g style="display: block;" transform="matrix(0.9506783485412598,0,0,1.0494089126586914,1300.5765380859375,-554.7130126953125)" opacity="1"><g opacity="1" transform="matrix(1,0,0,1,0,0)"><path stroke-linecap="round" stroke-linejoin="round" fill-opacity="0" stroke="rgb(235,141,0)" stroke-opacity="1" stroke-width="0" d=" M-1083.0660400390625,951.1300048828125 C-965.4550170898438,934.4199829101562 -798.02099609375,817.2080078125 -948.8170166015625,656.8709716796875"></path></g></g><g style="display: block;" transform="matrix(0.9506783485412598,0,0,1.0494089126586914,1300.5765380859375,-554.7130126953125)" opacity="1"><g opacity="1" transform="matrix(1,0,0,1,0,0)"><path stroke-linecap="round" stroke-linejoin="round" fill-opacity="0" stroke="rgb(235,141,0)" stroke-opacity="1" stroke-width="0" d=" M-1125.802001953125,951.72998046875 C-1310.7130126953125,944.35498046875 -1358.2760009765625,743.6729736328125 -1250.425048828125,653.781982421875"></path></g></g><g style="display: block;" transform="matrix(0.9860634803771973,0,0,1.029505968093872,1422.344482421875,-679.9413452148438)" opacity="1"><g opacity="1" transform="matrix(1,0,0,1,0,0)"><path fill="rgb(105,0,1)" fill-opacity="1" d=" M-1109.5560302734375,851.7100219726562 C-1092.375,974.1840209960938 -1244.6600341796875,1003.3380126953125 -1244.6209716796875,856.8980102539062 C-1217.3089599609375,869.2319946289062 -1135.68994140625,871.0770263671875 -1109.5560302734375,851.7100219726562z"></path><path stroke-linecap="round" stroke-linejoin="round" fill-opacity="0" stroke="rgb(186,24,94)" stroke-opacity="1" stroke-width="20" d=" M-1109.5560302734375,851.7100219726562 C-1092.375,974.1840209960938 -1244.6600341796875,1003.3380126953125 -1244.6209716796875,856.8980102539062 C-1217.3089599609375,869.2319946289062 -1135.68994140625,871.0770263671875 -1109.5560302734375,851.7100219726562z"></path></g></g><g style="display: block;" transform="matrix(0.8625733852386475,0.09867675602436066,-0.09451285004615784,0.9005752801895142,336.4486389160156,195.60780334472656)" opacity="1"><g opacity="1" transform="matrix(1,0,0,1,0,0)"><path fill="rgb(0,216,105)" fill-opacity="1" d=" M-68.1801528930664,120.89727783203125 C-68.7706298828125,94.18944549560547 -75.54560852050781,86.71369171142578 -95.15550994873047,88.5732650756836 C-191.0824432373047,97.61901092529297 -252.53575134277344,358.9276428222656 -57.66419982910156,340.3790283203125 C184.68203735351562,317.29681396484375 9.768447875976562,47.11945343017578 -73.16651916503906,89.30744171142578"></path><path stroke-linecap="round" stroke-linejoin="round" fill-opacity="0" stroke="rgb(1,130,23)" stroke-opacity="1" stroke-width="16" d=" M-68.1801528930664,120.89727783203125 C-68.7706298828125,94.18944549560547 -75.54560852050781,86.71369171142578 -95.15550994873047,88.5732650756836 C-191.0824432373047,97.61901092529297 -252.53575134277344,358.9276428222656 -57.66419982910156,340.3790283203125 C184.68203735351562,317.29681396484375 9.768447875976562,47.11945343017578 -73.16651916503906,89.30744171142578"></path></g><g opacity="1" transform="matrix(1,0,0,1,0,0)"><g opacity="1" transform="matrix(1,0,0,1,0,0)"><path fill="rgb(82,247,162)" fill-opacity="1" d=" M20.138431549072266,227.992919921875 C28.62578010559082,262.7744445800781 3.2273812294006348,298.8101806640625 -36.59204864501953,308.48077392578125 C-76.4114761352539,318.1513671875 -115.57190704345703,297.7963562011719 -124.05924987792969,263.0148620605469 C-132.54660034179688,228.23333740234375 -104.08052825927734,239.03524780273438 -64.26110076904297,229.36463928222656 C-24.441673278808594,219.6940460205078 11.651082992553711,193.21141052246094 20.138431549072266,227.992919921875z"></path></g><g opacity="1" transform="matrix(1,0,0,1,0,0)"><path stroke-linecap="round" stroke-linejoin="round" fill-opacity="0" stroke="rgb(1,100,18)" stroke-opacity="1" stroke-width="16" d=" M-41.3012809753418,162.2106170654297 C-41.3012809753418,162.2106170654297 -114.42019653320312,137.98458862304688 -105.50074768066406,185.2675018310547 C-96.58129119873047,232.55043029785156 -19.304615020751953,195.1207733154297 -10.385164260864258,242.4036865234375 C-1.4657127857208252,289.6866149902344 -91.70951080322266,288.2790832519531 -91.70951080322266,288.2790832519531"></path></g><g opacity="1" transform="matrix(1,0,0,1,0,0)"><path stroke-linecap="round" stroke-linejoin="round" fill-opacity="0" stroke="rgb(1,100,18)" stroke-opacity="1" stroke-width="16" d=" M-75.74110412597656,150.45082092285156 C-48.36888885498047,208.6844940185547 -46.283416748046875,309.9020080566406 -46.283416748046875,309.9020080566406"></path></g></g></g><g style="display: block;" transform="matrix(0.9860634803771973,0,0,1.029505968093872,1397.8388671875,-630.8709716796875)" opacity="1"><g opacity="1" transform="matrix(1,0,0,1,0,0)"><g opacity="1" transform="matrix(1,0,0,1,0,0)"><path fill="rgb(255,255,255)" fill-opacity="1" d=" M-1233.511474609375,675.6489868164062 C-1210.9473876953125,687.030029296875 -1193.5103759765625,659.093994140625 -1193.5103759765625,659.093994140625"></path><path stroke-linecap="round" stroke-linejoin="round" fill-opacity="0" stroke="rgb(91,173,235)" stroke-opacity="1" stroke-width="13" d=" M-1233.511474609375,675.6489868164062 C-1210.9473876953125,687.030029296875 -1193.5103759765625,659.093994140625 -1193.5103759765625,659.093994140625"></path></g><g opacity="1" transform="matrix(1,0,0,1,0,0)"><path fill="rgb(255,255,255)" fill-opacity="1" d=" M-1127.356689453125,643.0169067382812 C-1127.356689453125,643.0169067382812 -1111.42578125,671.1287231445312 -1062.73974609375,665.7799072265625"></path><path stroke-linecap="round" stroke-linejoin="round" fill-opacity="0" stroke="rgb(91,173,235)" stroke-opacity="1" stroke-width="13" d=" M-1127.356689453125,643.0169067382812 C-1127.356689453125,643.0169067382812 -1111.42578125,671.1287231445312 -1062.73974609375,665.7799072265625"></path></g></g></g><g style="display: block;" transform="matrix(0.9860634803771973,0,0,1.029505968093872,1397.8626708984375,-649.4382934570312)" opacity="1"><g opacity="1" transform="matrix(1,0,0,1,0,0)"><path fill="url(#__lottie_element_20)" fill-opacity="1" d=" M-1130.927978515625,729.2540283203125 C-1132.5059814453125,713.010986328125 -1134.365966796875,693.68798828125 -1094.2509765625,693.094970703125 C-1054.135986328125,692.5020141601562 -1017.9010009765625,695.2979736328125 -1008.5759887695312,703.1719970703125 C-994.5360107421875,715.0269775390625 -984.2210083007812,750.2969970703125 -1003.7050170898438,784.9739990234375 C-1023.1900024414062,819.6510009765625 -1077.0589599609375,807.2020263671875 -1088.2340087890625,803.052978515625 C-1099.4090576171875,798.9039916992188 -1125.197021484375,788.2340087890625 -1130.927978515625,729.2540283203125z"></path></g><g opacity="1" transform="matrix(1,0,0,1,0,0)"><path fill="url(#__lottie_element_21)" fill-opacity="1" d=" M-1177.31396484375,727.14599609375 C-1175.6920166015625,710.7869873046875 -1173.779052734375,691.3270263671875 -1215.0140380859375,690.72998046875 C-1256.2490234375,690.1329956054688 -1295.4730224609375,692.948974609375 -1305.0589599609375,700.8790283203125 C-1319.490966796875,712.8189697265625 -1330.094970703125,748.3389892578125 -1310.0670166015625,783.2620239257812 C-1290.0389404296875,818.1849975585938 -1232.68701171875,805.6489868164062 -1221.199951171875,801.469970703125 C-1209.7130126953125,797.291015625 -1183.2049560546875,786.5449829101562 -1177.31396484375,727.14599609375z"></path></g><g opacity="1" transform="matrix(1,0,0,1,0,0)"><path fill="rgb(0,0,0)" fill-opacity="1" d=" M-1178.4849853515625,737.530029296875 C-1175.758056640625,724.697021484375 -1145.3680419921875,718.0059814453125 -1133.2979736328125,736.8679809570312 C-1133.2979736328125,736.8679809570312 -1130.5999755859375,704.427001953125 -1130.5999755859375,704.427001953125 C-1146.9139404296875,717.4119873046875 -1164.967041015625,717.0139770507812 -1176.68994140625,704.9979858398438 C-1176.68994140625,704.9979858398438 -1178.4849853515625,737.530029296875 -1178.4849853515625,737.530029296875z"></path></g><g opacity="1" transform="matrix(1,0,0,1,0,0)"><path stroke-linecap="round" stroke-linejoin="round" fill-opacity="0" stroke="rgb(0,0,0)" stroke-opacity="1" stroke-width="13" d=" M-992.593994140625,720.5540161132812 C-992.593994140625,720.5540161132812 -960.676025390625,729.1099853515625 -957.3070068359375,732.2009887695312 C-954.281005859375,743.8259887695312 -956.97802734375,758.3369750976562 -956.97802734375,758.3369750976562"></path></g><g opacity="1" transform="matrix(1,0,0,1,0,0)"><path stroke-linecap="round" stroke-linejoin="round" fill-opacity="0" stroke="rgb(0,0,0)" stroke-opacity="1" stroke-width="13" d=" M-1305.0589599609375,700.8790283203125 C-1269.7359619140625,677.9030151367188 -1071.93505859375,685.3319702148438 -1011.6300048828125,701.031982421875"></path></g><g opacity="1" transform="matrix(1,0,0,1,0,0)"><g opacity="1" transform="matrix(1,0,0,1,0,0)"><path fill="url(#__lottie_element_22)" fill-opacity="1" d=" M-1310.41796875,774.4970092773438 C-1310.41796875,774.4970092773438 -1256.949951171875,695.4749755859375 -1256.949951171875,695.4749755859375 C-1256.949951171875,695.4749755859375 -1218.4339599609375,696.8300170898438 -1218.4339599609375,696.8300170898438 C-1218.4339599609375,696.8300170898438 -1290.3680419921875,797.97802734375 -1290.3680419921875,797.97802734375 C-1290.3680419921875,797.97802734375 -1310.41796875,774.4970092773438 -1310.41796875,774.4970092773438z"></path></g><g opacity="1" transform="matrix(1,0,0,1,0,0)"><path fill="url(#__lottie_element_23)" fill-opacity="1" d=" M-1272.5450439453125,799.7839965820312 C-1272.5450439453125,799.7839965820312 -1203.2840576171875,694.1199951171875 -1203.2840576171875,694.1199951171875 C-1203.2840576171875,694.1199951171875 -1182.7879638671875,702.2479858398438 -1182.7879638671875,702.2479858398438 C-1182.7879638671875,702.2479858398438 -1260.0689697265625,806.1060180664062 -1260.0689697265625,806.1060180664062 C-1260.0689697265625,806.1060180664062 -1272.5450439453125,799.7839965820312 -1272.5450439453125,799.7839965820312z"></path></g></g><g opacity="1" transform="matrix(1,0,0,1,0,0)"><g opacity="1" transform="matrix(1,0,0,1,0,0)"><path fill="url(#__lottie_element_24)" fill-opacity="1" d=" M-1127.134033203125,773.010986328125 C-1127.134033203125,773.010986328125 -1075.116943359375,694.5469970703125 -1075.116943359375,694.5469970703125 C-1075.116943359375,694.5469970703125 -1039.572021484375,695.8920288085938 -1039.572021484375,695.8920288085938 C-1039.572021484375,695.8920288085938 -1107.6280517578125,796.3259887695312 -1107.6280517578125,796.3259887695312 C-1107.6280517578125,796.3259887695312 -1127.134033203125,773.010986328125 -1127.134033203125,773.010986328125z"></path></g><g opacity="1" transform="matrix(1,0,0,1,0,0)"><path fill="url(#__lottie_element_25)" fill-opacity="1" d=" M-1090.2879638671875,798.1199951171875 C-1090.2879638671875,798.1199951171875 -1024.833984375,693.2009887695312 -1024.833984375,693.2009887695312 C-1024.833984375,693.2009887695312 -1004.8939819335938,701.27197265625 -1004.8939819335938,701.27197265625 C-1004.8939819335938,701.27197265625 -1078.1510009765625,804.39697265625 -1078.1510009765625,804.39697265625 C-1078.1510009765625,804.39697265625 -1090.2879638671875,798.1199951171875 -1090.2879638671875,798.1199951171875z"></path></g></g><g opacity="1" transform="matrix(1,0,0,1,0,0)"><path stroke-linecap="round" stroke-linejoin="round" fill-opacity="0" stroke="rgb(0,0,0)" stroke-opacity="1" stroke-width="13" d=" M-1130.927978515625,729.2540283203125 C-1132.5059814453125,713.010986328125 -1134.365966796875,693.68798828125 -1094.2509765625,693.094970703125 C-1054.135986328125,692.5020141601562 -1017.9010009765625,695.2979736328125 -1008.5759887695312,703.1719970703125 C-994.5360107421875,715.0269775390625 -984.2210083007812,750.2969970703125 -1003.7050170898438,784.9739990234375 C-1023.1900024414062,819.6510009765625 -1077.0589599609375,807.2020263671875 -1088.2340087890625,803.052978515625 C-1099.4090576171875,798.9039916992188 -1125.197021484375,788.2340087890625 -1130.927978515625,729.2540283203125z"></path></g><g opacity="1" transform="matrix(1,0,0,1,0,0)"><path stroke-linecap="round" stroke-linejoin="round" fill-opacity="0" stroke="rgb(0,0,0)" stroke-opacity="1" stroke-width="13" d=" M-1177.31396484375,727.14599609375 C-1175.6920166015625,710.7869873046875 -1173.779052734375,691.3270263671875 -1215.0140380859375,690.72998046875 C-1256.2490234375,690.1329956054688 -1295.4730224609375,692.948974609375 -1305.0589599609375,700.8790283203125 C-1319.490966796875,712.8189697265625 -1330.094970703125,748.3389892578125 -1310.0670166015625,783.2620239257812 C-1290.0389404296875,818.1849975585938 -1232.68701171875,805.6489868164062 -1221.199951171875,801.469970703125 C-1209.7130126953125,797.291015625 -1183.2049560546875,786.5449829101562 -1177.31396484375,727.14599609375z"></path></g></g><g style="display: block;" transform="matrix(0.9860634803771973,0,0,1.029505968093872,1397.8626708984375,-649.4382934570312)" opacity="1"><g opacity="1" transform="matrix(1,0,0,1,0,0)"><path stroke-linecap="round" stroke-linejoin="round" fill-opacity="0" stroke="rgb(0,0,0)" stroke-opacity="1" stroke-width="13" d=" M-1312.9010009765625,704.0269775390625 C-1312.9010009765625,704.0269775390625 -1370.864990234375,721.0130004882812 -1369.614990234375,735.1370239257812 C-1368.6419677734375,746.1279907226562 -1368.6719970703125,754.9600219726562 -1368.6719970703125,754.9600219726562"></path></g></g><g style="display: none;"><g><path></path></g></g><g style="display: none;"><g><path></path></g></g><g style="display: block;" transform="matrix(1,0,0,1,256,256)" opacity="1"></g></g></g></svg>